<svg width="245" height="50" viewBox="0 0 245 50" fill="none" xmlns="http://www.w3.org/2000/svg">
<path d="M9.25349 8.79276C10.492 3.91514 14.8827 0.500012 19.9151 0.50001L28.2166 0.500006C30.8249 0.500005 32.7355 2.95631 32.0935 5.48446L22.9651 41.434C21.7266 46.3116 17.3359 49.7267 12.3035 49.7267H4.00202C1.39364 49.7267 -0.5169 47.2704 0.125056 44.7423L9.25349 8.79276Z" fill="url(#paint0_linear_4_88)"/>
<path d="M9.25349 8.79276C10.492 3.91514 14.8827 0.500012 19.9151 0.50001L28.2166 0.500006C30.8249 0.500005 32.7355 2.95631 32.0935 5.48446L22.9651 41.434C21.7266 46.3116 17.3359 49.7267 12.3035 49.7267H4.00202C1.39364 49.7267 -0.5169 47.2704 0.125056 44.7423L9.25349 8.79276Z" fill="url(#paint1_linear_4_88)"/>
<path d="M35.643 11.5347C36.9305 4.96589 42.6878 0.227478 49.3816 0.227478H59.1486C59.7766 0.227478 60.2492 0.799599 60.1306 1.41633L55.1991 27.0602C53.8409 34.1228 47.661 39.2275 40.469 39.2275H33.8603C31.9718 39.2275 30.5531 37.5036 30.9163 35.6505L35.643 11.5347Z" fill="url(#paint2_linear_4_88)"/>
<path d="M84.9489 44V14.11H75.6879V7.49501H101.658V14.11H92.5439V44H84.9489Z" fill="#17012C"/>
<path d="M113.342 44.588C110.5 44.588 108.033 43.9673 105.943 42.726C103.852 41.452 102.235 39.7533 101.092 37.63C99.9484 35.5067 99.3767 33.1547 99.3767 30.574C99.3767 27.8953 99.9647 25.5107 101.141 23.42C102.349 21.3293 103.966 19.6797 105.992 18.471C108.017 17.2623 110.304 16.658 112.852 16.658C114.975 16.658 116.853 17.001 118.487 17.687C120.12 18.3403 121.492 19.2713 122.603 20.48C123.746 21.6887 124.612 23.0933 125.2 24.694C125.788 26.262 126.082 27.977 126.082 29.839C126.082 30.3617 126.049 30.8843 125.984 31.407C125.951 31.897 125.869 32.3217 125.739 32.681H105.698V27.291H121.574L118.095 29.839C118.421 28.4343 118.405 27.193 118.046 26.115C117.686 25.0043 117.049 24.1387 116.135 23.518C115.253 22.8647 114.158 22.538 112.852 22.538C111.578 22.538 110.483 22.8483 109.569 23.469C108.654 24.0897 107.968 25.0043 107.511 26.213C107.053 27.4217 106.874 28.8917 106.972 30.623C106.841 32.1257 107.021 33.4487 107.511 34.592C108.001 35.7353 108.752 36.6337 109.765 37.287C110.777 37.9077 112.002 38.218 113.44 38.218C114.746 38.218 115.857 37.9567 116.772 37.434C117.719 36.9113 118.454 36.1927 118.977 35.278L124.857 38.071C124.334 39.3777 123.501 40.521 122.358 41.501C121.247 42.481 119.924 43.2487 118.389 43.804C116.853 44.3267 115.171 44.588 113.342 44.588Z" fill="#17012C"/>
<path d="M142.562 44.588C139.883 44.588 137.466 43.9837 135.31 42.775C133.186 41.5337 131.488 39.8513 130.214 37.728C128.972 35.6047 128.352 33.22 128.352 30.574C128.352 27.928 128.972 25.5597 130.214 23.469C131.455 21.3457 133.154 19.6797 135.31 18.471C137.466 17.2623 139.883 16.658 142.562 16.658C144.554 16.658 146.4 17.001 148.099 17.687C149.797 18.373 151.251 19.3367 152.46 20.578C153.668 21.7867 154.534 23.224 155.057 24.89L148.687 27.634C148.229 26.2947 147.445 25.233 146.335 24.449C145.257 23.665 143.999 23.273 142.562 23.273C141.288 23.273 140.144 23.5833 139.132 24.204C138.152 24.8247 137.368 25.6903 136.78 26.801C136.224 27.9117 135.947 29.1857 135.947 30.623C135.947 32.0603 136.224 33.3343 136.78 34.445C137.368 35.5557 138.152 36.4213 139.132 37.042C140.144 37.6627 141.288 37.973 142.562 37.973C144.032 37.973 145.306 37.581 146.384 36.797C147.462 36.013 148.229 34.9513 148.687 33.612L155.057 36.405C154.567 37.973 153.717 39.3777 152.509 40.619C151.3 41.8603 149.846 42.8403 148.148 43.559C146.449 44.245 144.587 44.588 142.562 44.588Z" fill="#17012C"/>
<path d="M158.405 44V6.90701H165.755V22.538L164.873 21.362C165.494 19.7613 166.49 18.5853 167.862 17.834C169.267 17.05 170.9 16.658 172.762 16.658C174.787 16.658 176.551 17.0827 178.054 17.932C179.589 18.7813 180.782 19.9737 181.631 21.509C182.48 23.0117 182.905 24.7757 182.905 26.801V44H175.555V28.369C175.555 27.3237 175.343 26.4253 174.918 25.674C174.526 24.9227 173.954 24.3347 173.203 23.91C172.484 23.4853 171.635 23.273 170.655 23.273C169.708 23.273 168.858 23.4853 168.107 23.91C167.356 24.3347 166.768 24.9227 166.343 25.674C165.951 26.4253 165.755 27.3237 165.755 28.369V44H158.405Z" fill="#17012C"/>
<path d="M201.752 44.588C199.923 44.588 198.224 44.2613 196.656 43.608C195.121 42.922 193.879 41.9257 192.932 40.619L193.618 39.1V44H186.758V6.90701H194.108V22.342L192.981 20.872C193.863 19.5327 195.055 18.5037 196.558 17.785C198.093 17.0337 199.841 16.658 201.801 16.658C204.349 16.658 206.652 17.2787 208.71 18.52C210.768 19.7613 212.401 21.4437 213.61 23.567C214.819 25.6577 215.423 28.0097 215.423 30.623C215.423 33.2037 214.819 35.5557 213.61 37.679C212.434 39.8023 210.817 41.4847 208.759 42.726C206.701 43.9673 204.365 44.588 201.752 44.588ZM200.87 37.973C202.242 37.973 203.451 37.6627 204.496 37.042C205.541 36.4213 206.358 35.5557 206.946 34.445C207.534 33.3343 207.828 32.0603 207.828 30.623C207.828 29.1857 207.534 27.928 206.946 26.85C206.358 25.7393 205.541 24.8737 204.496 24.253C203.451 23.5997 202.242 23.273 200.87 23.273C199.563 23.273 198.387 23.5833 197.342 24.204C196.329 24.8247 195.529 25.6903 194.941 26.801C194.386 27.9117 194.108 29.1857 194.108 30.623C194.108 32.0603 194.386 33.3343 194.941 34.445C195.529 35.5557 196.329 36.4213 197.342 37.042C198.387 37.6627 199.563 37.973 200.87 37.973Z" fill="#17012C"/>
<path d="M231.635 44.588C228.793 44.588 226.326 43.9673 224.236 42.726C222.145 41.452 220.528 39.7533 219.385 37.63C218.241 35.5067 217.67 33.1547 217.67 30.574C217.67 27.8953 218.258 25.5107 219.434 23.42C220.642 21.3293 222.259 19.6797 224.285 18.471C226.31 17.2623 228.597 16.658 231.145 16.658C233.268 16.658 235.146 17.001 236.78 17.687C238.413 18.3403 239.785 19.2713 240.896 20.48C242.039 21.6887 242.905 23.0933 243.493 24.694C244.081 26.262 244.375 27.977 244.375 29.839C244.375 30.3617 244.342 30.8843 244.277 31.407C244.244 31.897 244.162 32.3217 244.032 32.681H223.991V27.291H239.867L236.388 29.839C236.714 28.4343 236.698 27.193 236.339 26.115C235.979 25.0043 235.342 24.1387 234.428 23.518C233.546 22.8647 232.451 22.538 231.145 22.538C229.871 22.538 228.776 22.8483 227.862 23.469C226.947 24.0897 226.261 25.0043 225.804 26.213C225.346 27.4217 225.167 28.8917 225.265 30.623C225.134 32.1257 225.314 33.4487 225.804 34.592C226.294 35.7353 227.045 36.6337 228.058 37.287C229.07 37.9077 230.295 38.218 231.733 38.218C233.039 38.218 234.15 37.9567 235.065 37.434C236.012 36.9113 236.747 36.1927 237.27 35.278L243.15 38.071C242.627 39.3777 241.794 40.521 240.651 41.501C239.54 42.481 238.217 43.2487 236.682 43.804C235.146 44.3267 233.464 44.588 231.635 44.588Z" fill="#17012C"/>
<defs>
<linearGradient id="paint0_linear_4_88" x1="54.7152" y1="25" x2="5.71518" y2="25" gradientUnits="userSpaceOnUse">
<stop stop-color="#384BFF"/>
<stop offset="1" stop-color="#9C30F5"/>
</linearGradient>
<linearGradient id="paint1_linear_4_88" x1="54.7152" y1="25" x2="5.71518" y2="25" gradientUnits="userSpaceOnUse">
<stop stop-color="#384BFF"/>
<stop offset="1" stop-color="#9C30F5"/>
</linearGradient>
<linearGradient id="paint2_linear_4_88" x1="54.7152" y1="25" x2="5.71518" y2="25" gradientUnits="userSpaceOnUse">
<stop stop-color="#384BFF"/>
<stop offset="1" stop-color="#9C30F5"/>
</linearGradient>
</defs>
</svg>
